<svg xmlns="http://www.w3.org/2000/svg" width="48" height="48" viewBox="0 0 48 48">
  <g id="_2111646" data-name="2111646" transform="translate(0 0.372)">
    <circle id="Эллипс_9" data-name="Эллипс 9" cx="24" cy="24" r="24" transform="translate(0 -0.372)" fill="#039be5"/>
    <path id="Контур_8" data-name="Контур 8" d="M6.287,16.488l23-9c1.058-.382,1.343.4,1,2h0l-4,18c-.288,1.3-.922,1.611-2,1l-6-4-3,2c-.315.315-.389,1-1,1l1-6,11-10c.477-.42-.371-.418-1,0l-14,8-5-1C5.02,18.086,4.724,17.1,6.287,16.488Z" transform="translate(4.713 7.14)" fill="#fff"/>
  </g>
</svg>
