<svg xmlns="http://www.w3.org/2000/svg" width="47" height="47" viewBox="0 0 47 47">
  <g id="_124034" data-name="124034" transform="translate(-0.346 -0.223)">
    <rect id="Прямоугольник_33" data-name="Прямоугольник 33" width="47" height="47" rx="23.5" transform="translate(0.346 0.223)" fill="#1bd741"/>
    <g id="Сгруппировать_6" data-name="Сгруппировать 6" transform="translate(7.116 7.098)">
      <path id="Контур_14" data-name="Контур 14" d="M68.724,101.446l2-8a18.585,18.585,0,0,1-2-9,15.653,15.653,0,0,1,16-16c9.118,0,17,6.882,17,16a17.359,17.359,0,0,1-17,17,16.1,16.1,0,0,1-8-2Zm9-5h0a13.2,13.2,0,0,0,7,2,14.211,14.211,0,0,0,14-14c0-7.571-6.429-13-14-13a12.53,12.53,0,0,0-13,13,15.591,15.591,0,0,0,2,8h0l-1,5Z" transform="translate(-68.494 -68.321)" fill="#fff"/>
      <path id="Контур_15" data-name="Контур 15" d="M151.609,153.171h-1c-.337-.018-.745-.221-1,0-.52.452-1.745.862-2,2-.381,1.7.476,3.922,2,6s3.979,5.58,9,7c1.618.458,3.018.628,4,0a6.226,6.226,0,0,0,2-3h0c.054-.254-.764-.891-1-1l-3-2c-.235-.108-.842.795-1,1l-1,1c-.108.139-.834.058-1,0a10.607,10.607,0,0,1-6-5c-.078-.15-.11.128,0,0l2-2c.139-.161.084.2,0,0l-2-4C151.526,152.977,151.821,153.183,151.609,153.171Z" transform="translate(-139.38 -144.046)" fill="#fff"/>
    </g>
  </g>
</svg>
