<svg xmlns="http://www.w3.org/2000/svg" width="20.259" height="24" viewBox="0 0 20.259 24">
  <g id="youtube-logotype" transform="translate(-7.067)">
    <g id="Сгруппировать_147" data-name="Сгруппировать 147" transform="translate(7.067)">
      <path id="Контур_88" data-name="Контур 88" d="M26.976,39.6a2.559,2.559,0,0,0-2.19-1.991,68.067,68.067,0,0,0-7.586-.281,68.088,68.088,0,0,0-7.587.281A2.559,2.559,0,0,0,7.424,39.6a21.692,21.692,0,0,0-.357,4.789,21.688,21.688,0,0,0,.353,4.789,2.559,2.559,0,0,0,2.189,1.991,68.071,68.071,0,0,0,7.586.281,68.022,68.022,0,0,0,7.587-.281,2.559,2.559,0,0,0,2.189-1.991,21.7,21.7,0,0,0,.355-4.789A21.72,21.72,0,0,0,26.976,39.6Zm-14.13,1.189H11.379v7.792H10.017V40.786H8.578V39.51h4.268Zm3.7,7.792H15.32v-.737a1.962,1.962,0,0,1-1.4.83.751.751,0,0,1-.789-.5,3.448,3.448,0,0,1-.108-1V41.821h1.224V46.8a3.812,3.812,0,0,0,.011.476c.029.19.122.286.286.286.246,0,.5-.189.774-.573V41.821h1.225v6.757ZM21.2,46.55a5.4,5.4,0,0,1-.124,1.361.969.969,0,0,1-.978.759,1.668,1.668,0,0,1-1.265-.747v.655H17.6V39.51h1.224v2.961a1.658,1.658,0,0,1,1.265-.733.968.968,0,0,1,.978.762,5.188,5.188,0,0,1,.124,1.358Zm4.62-1.127H23.368v1.2c0,.625.2.938.625.938a.526.526,0,0,0,.547-.491,7.7,7.7,0,0,0,.028-.83h1.249v.179c0,.395-.015.666-.026.789a1.745,1.745,0,0,1-.286.733,1.7,1.7,0,0,1-1.481.733,1.753,1.753,0,0,1-1.482-.692,2.617,2.617,0,0,1-.393-1.589V44.024a2.63,2.63,0,0,1,.378-1.592,1.74,1.74,0,0,1,1.466-.693,1.7,1.7,0,0,1,1.444.693,2.656,2.656,0,0,1,.379,1.592v1.4Z" transform="translate(-7.067 -27.446)"/>
      <path id="Контур_89" data-name="Контур 89" d="M69.271,58.163q-.614,0-.614.937v.625h1.224V59.1C69.881,58.476,69.676,58.163,69.271,58.163Z" transform="translate(-52.356 -42.769)"/>
      <path id="Контур_90" data-name="Контур 90" d="M52.116,58.163a.877.877,0,0,0-.611.3v4.118a.873.873,0,0,0,.611.3c.353,0,.533-.3.533-.912V59.085C52.648,58.476,52.469,58.163,52.116,58.163Z" transform="translate(-39.743 -42.769)"/>
      <path id="Контур_91" data-name="Контур 91" d="M53.877,15.742A1.988,1.988,0,0,0,55.29,14.9v.745h1.237V8.82H55.29v5.219c-.274.387-.534.579-.782.579-.166,0-.263-.1-.29-.29a2.869,2.869,0,0,1-.015-.481V8.82H52.97v5.4a3.449,3.449,0,0,0,.11,1.015A.76.76,0,0,0,53.877,15.742Z" transform="translate(-40.821 -6.486)"/>
      <path id="Контур_92" data-name="Контур 92" d="M19.076,5.452V9.163h1.372V5.452L22.1,0H20.711l-.936,3.6L18.8,0H17.357c.289.849.59,1.7.88,2.553A22.572,22.572,0,0,1,19.076,5.452Z" transform="translate(-14.633)"/>
      <path id="Контур_93" data-name="Контур 93" d="M37.141,15.513a1.687,1.687,0,0,0,1.443-.7,2.671,2.671,0,0,0,.384-1.606V10.817a2.676,2.676,0,0,0-.384-1.608,1.835,1.835,0,0,0-2.884,0,2.654,2.654,0,0,0-.387,1.608v2.391a2.647,2.647,0,0,0,.387,1.606A1.686,1.686,0,0,0,37.141,15.513Zm-.59-4.944c0-.632.192-.947.59-.947s.59.315.59.947v2.872c0,.632-.191.948-.59.948s-.59-.316-.59-.948Z" transform="translate(-27.837 -6.256)"/>
    </g>
  </g>
</svg>
